<mxfile host="app.diagrams.net" modified="2023-06-13T09:33:36.075Z" agent="Mozilla/5.0 (Windows NT 10.0; Win64; x64) AppleWebKit/537.36 (KHTML, like Gecko) Chrome/114.0.0.0 Safari/537.36" etag="CAOKqVyzyBmF2y-1PUsD" version="21.3.8" type="github">
  <diagram name="第 1 页" id="l3jWCNHsq5altFiL_5D-">
    <mxGraphModel dx="1434" dy="796" grid="1" gridSize="10" guides="1" tooltips="1" connect="1" arrows="1" fold="1" page="1" pageScale="1" pageWidth="827" pageHeight="1169" math="0" shadow="0">
      <root>
        <mxCell id="0" />
        <mxCell id="1" parent="0" />
        <mxCell id="vkQOH0nPv6Tu7YWWwA5k-2" value="" style="rounded=0;whiteSpace=wrap;html=1;" vertex="1" parent="1">
          <mxGeometry x="110" y="80" width="630" height="170" as="geometry" />
        </mxCell>
        <mxCell id="vkQOH0nPv6Tu7YWWwA5k-3" value="应用A" style="text;html=1;strokeColor=none;fillColor=none;align=center;verticalAlign=middle;whiteSpace=wrap;rounded=0;" vertex="1" parent="1">
          <mxGeometry x="110" y="80" width="60" height="30" as="geometry" />
        </mxCell>
        <mxCell id="vkQOH0nPv6Tu7YWWwA5k-4" value="" style="rounded=1;whiteSpace=wrap;html=1;" vertex="1" parent="1">
          <mxGeometry x="130" y="110" width="210" height="120" as="geometry" />
        </mxCell>
        <mxCell id="vkQOH0nPv6Tu7YWWwA5k-5" value="security" style="text;html=1;strokeColor=none;fillColor=none;align=center;verticalAlign=middle;whiteSpace=wrap;rounded=0;" vertex="1" parent="1">
          <mxGeometry x="140" y="110" width="60" height="30" as="geometry" />
        </mxCell>
        <mxCell id="vkQOH0nPv6Tu7YWWwA5k-6" value="token生成" style="rounded=1;whiteSpace=wrap;html=1;" vertex="1" parent="1">
          <mxGeometry x="140" y="140" width="70" height="20" as="geometry" />
        </mxCell>
        <mxCell id="vkQOH0nPv6Tu7YWWwA5k-7" value="refresh token" style="rounded=1;whiteSpace=wrap;html=1;" vertex="1" parent="1">
          <mxGeometry x="140" y="180" width="80" height="20" as="geometry" />
        </mxCell>
        <mxCell id="vkQOH0nPv6Tu7YWWwA5k-8" value="" style="rounded=1;whiteSpace=wrap;html=1;" vertex="1" parent="1">
          <mxGeometry x="510" y="110" width="210" height="120" as="geometry" />
        </mxCell>
        <mxCell id="vkQOH0nPv6Tu7YWWwA5k-9" value="starter" style="text;html=1;strokeColor=none;fillColor=none;align=center;verticalAlign=middle;whiteSpace=wrap;rounded=0;" vertex="1" parent="1">
          <mxGeometry x="520" y="110" width="60" height="30" as="geometry" />
        </mxCell>
      </root>
    </mxGraphModel>
  </diagram>
</mxfile>
